<?xml version="1.0" encoding="utf-8"?>
<!-- Generator: Adobe Illustrator 27.6.1, SVG Export Plug-In . SVG Version: 6.00 Build 0)  -->
<svg version="1.1" id="Calque_1" xmlns="http://www.w3.org/2000/svg" xmlns:xlink="http://www.w3.org/1999/xlink" x="0px" y="0px"
	 viewBox="0 0 410 404" style="enable-background:new 0 0 410 404;" xml:space="preserve">
<style type="text/css">
	.st0{fill:url(#SVGID_1_);}
	.st1{fill:url(#SVGID_00000065797415642282076930000004838940991624940957_);}
</style>
<linearGradient id="SVGID_1_" gradientUnits="userSpaceOnUse" x1="117.1408" y1="431.5949" x2="348.5057" y2="117.3829" gradientTransform="matrix(1 0 0 -1 0 403.8898)">
	<stop  offset="0" style="stop-color:#F6CEEC"/>
	<stop  offset="0.1352" style="stop-color:#F5C8EB"/>
	<stop  offset="0.2636" style="stop-color:#F3BDE8"/>
	<stop  offset="0.3708" style="stop-color:#F1B2E6"/>
	<stop  offset="0.5563" style="stop-color:#EB96E0"/>
	<stop  offset="0.7962" style="stop-color:#E369D7"/>
	<stop  offset="1" style="stop-color:#DA3DCE"/>
</linearGradient>
<path class="st0" d="M399.6,59.5l-184,329c-3.8,6.8-13.6,6.8-17.4,0.1L10.6,59.6C6.4,52.2,12.7,43.3,21,44.8l184.2,32.9
	c1.2,0.2,2.4,0.2,3.6,0l180.3-32.9C397.4,43.3,403.8,52.1,399.6,59.5z"/>
<linearGradient id="SVGID_00000146488834763149578190000008753016123837393296_" gradientUnits="userSpaceOnUse" x1="215.0368" y1="398.0434" x2="256.4618" y2="113.8726" gradientTransform="matrix(1 0 0 -1 0 403.8898)">
	<stop  offset="0" style="stop-color:#FFEA83"/>
	<stop  offset="8.333330e-02" style="stop-color:#FFDD35"/>
	<stop  offset="1" style="stop-color:#FFA800"/>
</linearGradient>
<path style="fill:url(#SVGID_00000146488834763149578190000008753016123837393296_);" d="M293,1.6L156.8,28.3
	c-2.2,0.4-3.9,2.3-4,4.6l-8.4,141.5c-0.2,3.3,2.9,5.9,6.1,5.2l37.9-8.7c3.5-0.8,6.8,2.3,6,5.9l-11.3,55.2c-0.8,3.7,2.7,6.9,6.4,5.8
	l23.4-7.1c3.6-1.1,7.1,2.1,6.3,5.8l-17.9,86.6c-1.1,5.4,6.1,8.4,9.1,3.7l2-3.1l111-221.4c1.9-3.7-1.3-7.9-5.4-7.1l-39,7.5
	c-3.7,0.7-6.8-2.7-5.8-6.3l25.5-88.3C299.8,4.3,296.6,0.9,293,1.6z"/>
</svg>
